<?xml version="1.0" encoding="utf-8"?>
<!-- Generator: Adobe Illustrator 19.0.0, SVG Export Plug-In . SVG Version: 6.00 Build 0)  -->
<svg version="1.1" id="Layer_1" xmlns="http://www.w3.org/2000/svg" xmlns:xlink="http://www.w3.org/1999/xlink" x="0px" y="0px"
	 viewBox="0 0 500 500" style="enable-background:new 0 0 500 500;" xml:space="preserve">
<style type="text/css">
	.st0{fill:#010101;}
	.st1{fill:#FFFFFF;}
</style>
<g id="XMLID_1_">
	<path id="XMLID_2_" class="st0" d="M203.8,73.4c47.2-12.1,99.4-5.1,141.1,20.7c52.5,31.4,86.7,90.7,87.6,151.8
		c1.9,61.7-30.2,122.9-81.9,156.4c-57.5,38.7-137.1,40.2-195.8,3.4c-59.9-35.7-94.8-107.8-85.8-177
		C76.1,155.6,132.6,91.1,203.8,73.4z"/>
	<path id="XMLID_3_" class="st1" d="M196.5,103.3c89.2-35.7,198.7,30.2,207.9,125.9c14.4,86.1-57.1,173.6-144.3,176.1
		c-83,8.3-163.1-62-165.5-145.3C88.5,192.6,132.9,125.6,196.5,103.3z"/>
	<path id="XMLID_4_" class="st0" d="M205.5,240.7c40-32.7,79.1-66.5,120-98.2c-21.4,32.9-43.5,65.4-64.9,98.4
		C242.2,241,223.8,241,205.5,240.7z"/>
	<path id="XMLID_5_" class="st0" d="M239.3,259c18.5,0,36.9,0,55.2,0.3c-40.3,32.5-79.2,66.6-120.2,98.2
		C195.9,324.5,217.9,291.9,239.3,259z"/>
</g>
</svg>
